<svg width="24" height="24" viewBox="0 0 24 24" fill="none" xmlns="http://www.w3.org/2000/svg">
<path d="M12.1818 14.1818L3.27274 11.4545V18L5.45455 19.8182H18L20.5455 18.5454L21.0909 11.8182L12.1818 14.1818Z" fill="#D9D9D9" fill-opacity="0.4"/>
<path d="M15.0469 2.00488C15.1872 2.00969 15.294 2.01887 15.3906 2.03809C16.1837 2.19599 16.804 2.81629 16.9619 3.60938C17.0003 3.80257 17 4.03534 17 4.5C17 4.72579 16.9994 4.89681 16.9951 5.03516C18.8702 5.11277 20.0193 5.36301 20.8281 6.17188C21.9997 7.34345 22 9.22876 22 13C22 16.7712 21.9997 18.6566 20.8281 19.8281C19.803 20.8533 18.2315 20.982 15.3281 20.998L14 21H10L8.67188 20.998C5.8719 20.9826 4.31033 20.8625 3.2832 19.9346L3.17188 19.8281C2.0003 18.6566 2 16.7712 2 13C2 9.34627 2 7.46248 3.06543 6.2832L3.17188 6.17188C3.9806 5.36315 5.12943 5.11282 7.00391 5.03516C6.99958 4.89681 7 4.72577 7 4.5C7 4.03534 6.99966 3.80257 7.03809 3.60938C7.19599 2.81629 7.81629 2.19599 8.60938 2.03809C8.70598 2.01887 8.81281 2.00969 8.95312 2.00488L9.5 2H14.5L15.0469 2.00488ZM4 13C4 14.9422 4.00454 16.198 4.12891 17.123C4.24554 17.9901 4.43372 18.2618 4.58594 18.4141C4.73816 18.5663 5.00986 18.7545 5.87695 18.8711C6.80197 18.9955 8.05784 19 10 19H14C15.9422 19 17.198 18.9955 18.123 18.8711C18.9901 18.7545 19.2618 18.5663 19.4141 18.4141C19.5663 18.2618 19.7545 17.9901 19.8711 17.123C19.9955 16.198 20 14.9422 20 13C20 12.9814 19.999 12.9628 19.999 12.9443C19.4879 13.1586 18.8598 13.4148 18.1641 13.667C16.398 14.3071 14.0739 14.9999 12.1816 15C10.2894 14.9999 7.96526 14.3071 6.19922 13.667C5.32843 13.3514 4.56086 13.0354 4 12.7939C3.99998 12.8618 4 12.9304 4 13ZM10 7C8.05784 7 6.80197 7.00454 5.87695 7.12891C5.00986 7.24554 4.73816 7.43372 4.58594 7.58594C4.43372 7.73816 4.24554 8.00986 4.12891 8.87695C4.065 9.35229 4.03287 9.91499 4.0166 10.6133C4.04266 10.6253 4.07233 10.6391 4.10547 10.6543C4.25177 10.7212 4.46686 10.8175 4.73535 10.9336C5.27362 11.1663 6.02658 11.4775 6.88086 11.7871C8.62594 12.4196 10.666 12.9999 12.1816 13C13.6974 12.9999 15.7372 12.4196 17.4824 11.7871C18.3367 11.4775 19.0886 11.1664 19.627 10.9336C19.7601 10.876 19.8793 10.821 19.9844 10.7744C19.9694 10.0008 19.9398 9.3883 19.8711 8.87695C19.7545 8.00986 19.5663 7.73816 19.4141 7.58594C19.2618 7.43372 18.9901 7.24554 18.123 7.12891C17.198 7.00454 15.9422 7 14 7H10ZM13.3633 9.09082C13.9155 9.09082 14.3632 9.53858 14.3633 10.0908C14.3633 10.6431 13.9156 11.0908 13.3633 11.0908H11C10.4477 11.0908 10 10.6431 10 10.0908C10 9.53858 10.4478 9.09083 11 9.09082H13.3633ZM9.02148 4.00391C9.01512 4.00412 9.00925 4.00368 9.00391 4.00391C9.00368 4.00925 9.00412 4.01512 9.00391 4.02148C9.00055 4.11965 9 4.25411 9 4.5C9 4.74589 9.00055 4.88035 9.00391 4.97852C9.00411 4.98449 9.0037 4.99004 9.00391 4.99512C9.00926 4.99534 9.0151 4.99588 9.02148 4.99609C9.11965 4.99945 9.25411 5 9.5 5H14.5C14.7459 5 14.8804 4.99945 14.9785 4.99609C14.9845 4.99589 14.99 4.99533 14.9951 4.99512C14.9953 4.99003 14.9959 4.98451 14.9961 4.97852C14.9995 4.88035 15 4.74589 15 4.5C15 4.25411 14.9995 4.11965 14.9961 4.02148C14.9959 4.0151 14.9953 4.00926 14.9951 4.00391C14.99 4.0037 14.9845 4.00411 14.9785 4.00391C14.8804 4.00055 14.7459 4 14.5 4H9.5C9.25411 4 9.11965 4.00055 9.02148 4.00391Z" fill="#2F2F2F"/>
</svg>
