<svg width="24" height="24" viewBox="0 0 24 24" fill="none" xmlns="http://www.w3.org/2000/svg">
<path d="M14.5 2.5C17.3089 2.5 18.7138 2.49971 19.7227 3.17383C20.1593 3.46562 20.5344 3.84068 20.8262 4.27734C21.5003 5.28624 21.5 6.69108 21.5 9.5C21.5 12.3089 21.5003 13.7138 20.8262 14.7227C20.5344 15.1593 20.1593 15.5344 19.7227 15.8262C18.9856 16.3187 18.037 16.4486 16.4844 16.4844C16.4976 15.9117 16.5 15.2569 16.5 14.5C16.5 11.6911 16.5003 10.2862 15.8262 9.27734C15.5344 8.84068 15.1593 8.46562 14.7227 8.17383C13.7138 7.49971 12.3089 7.5 9.5 7.5C8.74271 7.5 8.08754 7.50144 7.51465 7.51465C7.55044 5.96257 7.68145 5.01424 8.17383 4.27734C8.46562 3.84068 8.84068 3.46562 9.27734 3.17383C10.2862 2.49971 11.6911 2.5 14.5 2.5Z" fill="#D9D9D9" fill-opacity="0.4"/>
<path d="M7.51465 7.51367C7.55038 5.96203 7.68155 5.0141 8.17383 4.27734C8.46562 3.84068 8.84068 3.46562 9.27734 3.17383C10.2862 2.49971 11.6911 2.5 14.5 2.5C17.3089 2.5 18.7138 2.49971 19.7227 3.17383C20.1593 3.46562 20.5344 3.84068 20.8262 4.27734C21.5003 5.28624 21.5 6.69108 21.5 9.5C21.5 12.3089 21.5003 13.7138 20.8262 14.7227L20.7129 14.8828C20.4396 15.2513 20.1049 15.5707 19.7227 15.8262L19.5283 15.9443C18.8186 16.3402 17.9042 16.4507 16.4844 16.4834C16.4487 18.0368 16.3188 18.9854 15.8262 19.7227L15.7129 19.8828C15.4396 20.2513 15.1049 20.5707 14.7227 20.8262L14.5283 20.9443C13.5324 21.4999 12.1335 21.5 9.5 21.5C6.8665 21.5 5.46758 21.4999 4.47168 20.9443L4.27734 20.8262C3.89511 20.5707 3.56038 20.2513 3.28711 19.8828L3.17383 19.7227C2.49971 18.7138 2.5 17.3089 2.5 14.5C2.5 11.6911 2.49971 10.2862 3.17383 9.27734C3.46562 8.84068 3.84068 8.46562 4.27734 8.17383C5.01425 7.68144 5.96241 7.54937 7.51465 7.51367ZM9.5 9.5C8.05391 9.5 7.11965 9.50264 6.41602 9.57422C5.74601 9.6424 5.50971 9.75604 5.38867 9.83691C5.17034 9.98281 4.98281 10.1703 4.83691 10.3887C4.75604 10.5097 4.6424 10.746 4.57422 11.416C4.50264 12.1196 4.5 13.0539 4.5 14.5C4.5 15.9461 4.50264 16.8804 4.57422 17.584C4.6424 18.254 4.75604 18.4903 4.83691 18.6113C4.98281 18.8297 5.17034 19.0172 5.38867 19.1631C5.50971 19.244 5.74601 19.3576 6.41602 19.4258C7.11965 19.4974 8.05391 19.5 9.5 19.5C10.9461 19.5 11.8804 19.4974 12.584 19.4258C13.254 19.3576 13.4903 19.244 13.6113 19.1631C13.8297 19.0172 14.0172 18.8297 14.1631 18.6113C14.244 18.4903 14.3576 18.254 14.4258 17.584C14.4974 16.8804 14.5 15.9461 14.5 14.5C14.5 13.0539 14.4974 12.1196 14.4258 11.416C14.3576 10.746 14.244 10.5097 14.1631 10.3887C14.0172 10.1703 13.8297 9.98281 13.6113 9.83691C13.4903 9.75604 13.254 9.6424 12.584 9.57422C11.8804 9.50264 10.9461 9.5 9.5 9.5ZM14.5 4.5C13.0539 4.5 12.1196 4.50264 11.416 4.57422C10.746 4.6424 10.5097 4.75604 10.3887 4.83691C10.1703 4.98281 9.98281 5.17034 9.83691 5.38867C9.75604 5.50971 9.6424 5.74601 9.57422 6.41602C9.54279 6.72494 9.52608 7.07836 9.51562 7.5C9.51042 7.5 9.50521 7.5 9.5 7.5C12.3089 7.5 13.7138 7.49971 14.7227 8.17383C15.1593 8.46562 15.5344 8.84068 15.8262 9.27734C16.4989 10.2841 16.499 11.6852 16.499 14.4824C16.9211 14.472 17.2748 14.4572 17.584 14.4258C18.254 14.3576 18.4903 14.244 18.6113 14.1631C18.8297 14.0172 19.0172 13.8297 19.1631 13.6113C19.244 13.4903 19.3576 13.254 19.4258 12.584C19.4974 11.8804 19.5 10.9461 19.5 9.5C19.5 8.05391 19.4974 7.11965 19.4258 6.41602C19.3576 5.74601 19.244 5.50971 19.1631 5.38867C19.0172 5.17034 18.8297 4.98281 18.6113 4.83691C18.4903 4.75604 18.254 4.6424 17.584 4.57422C16.8804 4.50264 15.9461 4.5 14.5 4.5Z" fill="#2F2F2F"/>
</svg>
