<svg width="24" height="24" viewBox="0 0 24 24" fill="none" xmlns="http://www.w3.org/2000/svg">
<path d="M3 13C3 9.25027 3 7.3754 3.95491 6.06107C4.26331 5.6366 4.6366 5.26331 5.06107 4.95491C6.3754 4 8.25027 4 12 4C15.7497 4 17.6246 4 18.9389 4.95491C19.3634 5.26331 19.7367 5.6366 20.0451 6.06107C21 7.3754 21 9.25027 21 13C21 16.7497 21 18.6246 20.0451 19.9389C19.7367 20.3634 19.3634 20.7367 18.9389 21.0451C17.6246 22 15.7497 22 12 22C8.25027 22 6.3754 22 5.06107 21.0451C4.6366 20.7367 4.26331 20.3634 3.95491 19.9389C3 18.6246 3 16.7497 3 13Z" fill="currentColor" fill-opacity="0.12"></path>
<path d="M12.0234 0.335938C12.707 0.335938 13.2949 0.88921 13.2949 1.58789V4.00098C16.2 4.01359 17.785 4.11718 18.9385 4.95508C19.3629 5.26348 19.7365 5.63705 20.0449 6.06152C20.9997 7.37584 21 9.25047 21 13C21 16.7495 20.9997 18.6242 20.0449 19.9385C19.7365 20.3629 19.3629 20.7365 18.9385 21.0449C17.6242 21.9997 15.7495 22 12 22C8.48455 22 6.61714 21.9998 5.31445 21.2129L5.06152 21.0449C4.69006 20.775 4.35712 20.4558 4.07324 20.0957L3.95508 19.9385C3.00032 18.6242 3 16.7495 3 13C3 9.48455 3.00023 7.61714 3.78711 6.31445L3.95508 6.06152C4.22496 5.69006 4.54421 5.35712 4.9043 5.07324L5.06152 4.95508C6.21988 4.11362 7.81345 4.01288 10.7422 4.00098V1.58789C10.7422 0.881225 11.3482 0.335939 12.0234 0.335938ZM13.2949 11.5303L13.2939 11.542L13.2881 11.6719L14.4326 10.4541C14.6719 10.1889 15.0035 10.0625 15.3242 10.0625C15.9726 10.0625 16.5371 10.5423 16.5371 11.2461C16.5371 11.6294 16.3677 11.9058 16.1562 12.1172L16.1494 12.124L12.9268 15.2295L12.9258 15.2285C12.7977 15.3554 12.6594 15.4594 12.5 15.5283C12.3347 15.5997 12.1744 15.623 12.0234 15.623C11.8704 15.623 11.7075 15.6007 11.54 15.5293C11.3779 15.4601 11.2386 15.3557 11.1104 15.2285V15.2295L7.8877 12.124L7.88086 12.1172C7.66961 11.9059 7.5 11.6295 7.5 11.2461C7.5 10.5556 8.03101 10.0625 8.70312 10.0625C9.01648 10.0625 9.35965 10.1844 9.60352 10.4541H9.60449L10.7471 11.6709L10.7422 11.542V6.00098C9.49363 6.00614 8.57295 6.02728 7.83301 6.10742C6.90145 6.20835 6.49573 6.38477 6.23633 6.57324C5.9819 6.75815 5.75815 6.9819 5.57324 7.23633C5.38477 7.49573 5.20835 7.90145 5.10742 8.83301C5.00248 9.80195 5 11.0808 5 13C5 14.9192 5.00248 16.198 5.10742 17.167C5.20835 18.0985 5.38477 18.5043 5.57324 18.7637C5.75815 19.0181 5.9819 19.2419 6.23633 19.4268C6.49573 19.6152 6.90145 19.7916 7.83301 19.8926C8.80195 19.9975 10.0808 20 12 20C13.9192 20 15.198 19.9975 16.167 19.8926C17.0985 19.7916 17.5043 19.6152 17.7637 19.4268C18.0181 19.2419 18.2419 19.0181 18.4268 18.7637C18.6152 18.5043 18.7916 18.0985 18.8926 17.167C18.9975 16.198 19 14.9192 19 13C19 11.0808 18.9975 9.80195 18.8926 8.83301C18.7916 7.90145 18.6152 7.49573 18.4268 7.23633C18.2419 6.9819 18.0181 6.75815 17.7637 6.57324C17.5043 6.38477 17.0985 6.20835 16.167 6.10742C15.4344 6.02807 14.5246 6.00639 13.2949 6.00098V11.5303Z" fill="currentColor"></path>
</svg>