<svg width="24" height="24" viewBox="0 0 24 24" fill="none" xmlns="http://www.w3.org/2000/svg">
<path d="M18.8393 16.7745C15.6276 13.0754 7.94842 13.032 4.9694 16.9041C4.11552 18.0139 4.26271 19.6409 5.42522 20.4216C8.5127 22.4949 15.1058 22.5257 18.3711 20.5138C19.6701 19.7134 19.8397 17.9267 18.8393 16.7745Z" fill="#D9D9D9" fill-opacity="0.4"/>
<path d="M11.8135 13C14.7009 12.9886 17.7426 13.9858 19.5948 16.1191C20.9486 17.6788 20.7833 20.202 18.8956 21.3652C17.0435 22.5063 14.369 23.016 11.8252 23C9.2866 22.984 6.6418 22.4428 4.86817 21.252C3.15465 20.1013 3.02543 17.7904 4.17675 16.2939C5.91657 14.0328 8.92888 13.0115 11.8135 13ZM11.8213 15C9.31885 15.01 7.00101 15.903 5.76173 17.5137C5.2053 18.2369 5.37093 19.1811 5.98243 19.5918C7.29632 20.474 9.49219 20.9852 11.8379 21C14.1787 21.0147 16.4337 20.5328 17.8468 19.6621C18.5564 19.2245 18.7303 18.1741 18.0841 17.4297C16.7248 15.8644 14.3208 14.9901 11.8213 15ZM12.0001 1.5C14.7614 1.50012 17.0001 3.73865 17.0001 6.5C17.0001 9.26135 14.7614 11.4999 12.0001 11.5C9.23861 11.5 7.00002 9.26142 7.00002 6.5C7.00002 3.73858 9.23861 1.5 12.0001 1.5ZM12.0001 3.80762C10.5131 3.80762 9.30765 5.01308 9.30765 6.5C9.30765 7.98692 10.5131 9.19238 12.0001 9.19238C13.4869 9.19226 14.6925 7.98685 14.6925 6.5C14.6925 5.01315 13.4869 3.80774 12.0001 3.80762Z" fill="#2F2F2F"/>
</svg>
