<svg width="24" height="24" viewBox="0 0 24 24" fill="none" xmlns="http://www.w3.org/2000/svg">
<path d="M10 3.15462C11.2376 2.44012 12.7624 2.44012 14 3.15462L18.6602 5.84505C19.8976 6.55951 20.66 7.88004 20.6602 9.30892V14.6908C20.6601 16.1198 19.8977 17.4401 18.6602 18.1546L14 20.8451C12.7624 21.5596 11.2376 21.5596 10 20.8451L5.33984 18.1546C4.10229 17.4401 3.3399 16.1198 3.33984 14.6908V9.30892C3.34001 7.88004 4.10238 6.55951 5.33984 5.84505L10 3.15462ZM12 8.00033C9.79086 8.00033 8 9.79119 8 12.0003C8.00018 14.2093 9.79097 16.0003 12 16.0003C14.209 16.0003 15.9998 14.2093 16 12.0003C16 9.79119 14.2091 8.00033 12 8.00033Z" fill="#D9D9D9" fill-opacity="0.4"/>
<path d="M10 3.15463C11.2375 2.44024 12.7625 2.44024 14 3.15463L18.6602 5.84605C19.8976 6.56062 20.6602 7.88096 20.6602 9.30993V14.6908C20.66 16.1197 19.8976 17.4402 18.6602 18.1547L14 20.8461L13.7646 20.9711C12.6524 21.5181 11.3476 21.5181 10.2354 20.9711L10 20.8461L5.33984 18.1547C4.17971 17.4848 3.43699 16.2825 3.34863 14.9574L3.33984 14.6908V9.30993C3.33984 7.97027 4.0099 6.72576 5.11328 5.98668L5.33984 5.84605L10 3.15463ZM13 4.88706C12.3812 4.52981 11.6188 4.52981 11 4.88706L6.33984 7.5775C5.72113 7.93479 5.33984 8.59545 5.33984 9.30993V14.6908C5.33996 15.4052 5.72114 16.066 6.33984 16.4232L11 19.1137C11.6187 19.4708 12.3813 19.4708 13 19.1137L17.6602 16.4232C18.2789 16.066 18.66 15.4052 18.6602 14.6908V9.30993C18.6602 8.59545 18.2789 7.93479 17.6602 7.5775L13 4.88706ZM12 8.00035C14.2091 8.00035 16 9.79122 16 12.0004C15.9998 14.2094 14.209 16.0004 12 16.0004C9.79097 16.0004 8.00018 14.2094 8 12.0004C8 9.79122 9.79086 8.00035 12 8.00035ZM12 10.0004C10.8954 10.0004 10 10.8958 10 12.0004C10.0002 13.1048 10.8955 14.0004 12 14.0004C13.1045 14.0004 13.9998 13.1048 14 12.0004C14 10.8958 13.1046 10.0004 12 10.0004Z" fill="#2F2F2F"/>
</svg>
