<svg width="24" height="24" viewBox="0 0 24 24" fill="none" xmlns="http://www.w3.org/2000/svg">
<path d="M20.3889 13.5556C20.3889 18.2193 16.6082 22 11.9444 22C7.28071 22 3.5 18.2193 3.5 13.5556C3.5 8.89182 7.28071 5.11111 11.9444 5.11111C16.6082 5.11111 20.3889 8.89182 20.3889 13.5556Z" fill="#D9D9D9" fill-opacity="0.4"/>
<path d="M11.9443 5.11131C16.6081 5.11131 20.3885 8.89197 20.3887 13.5557C20.3887 18.2195 16.6081 22 11.9443 22C7.28064 21.9999 3.5 18.2194 3.5 13.5557C3.50013 8.89204 7.28072 5.11143 11.9443 5.11131ZM11.9443 7.11131C8.3853 7.11143 5.50013 9.99662 5.5 13.5557C5.5 17.1148 8.38522 19.9999 11.9443 20C15.5036 20 18.3887 17.1149 18.3887 13.5557C18.3885 9.99655 15.5035 7.11131 11.9443 7.11131ZM14.7559 9.68553C15.1463 9.29518 15.7794 9.29528 16.1699 9.68553C16.5603 10.076 16.5603 10.7091 16.1699 11.0996L12.792 14.4775C12.4015 14.868 11.7684 14.868 11.3779 14.4775C10.9877 14.087 10.9876 13.4539 11.3779 13.0635L14.7559 9.68553ZM8.2373 2.35936C9.50432 1.69841 12.7082 0.818081 15.8887 2.34471C16.3862 2.58374 16.5961 3.18097 16.3574 3.67869C16.1185 4.17647 15.5213 4.38615 15.0234 4.14744C12.5749 2.97213 10.0546 3.66783 9.16309 4.13279C8.67353 4.38822 8.06902 4.19842 7.81348 3.70897C7.55813 3.21942 7.74787 2.61487 8.2373 2.35936Z" fill="#2F2F2F"/>
</svg>
