<svg width="120" height="26" viewBox="0 0 120 26" fill="none" xmlns="http://www.w3.org/2000/svg">
<path d="M1.58081 5.79685L2.63475 4.39159L7.55315 3.51331L7.20184 21.606L3.51304 21.4303L1.58081 19.4981V5.79685Z" fill="#D9D9D9" stroke="#2F2F2F" stroke-width="0.351314"></path>
<path d="M7.90454 1.05408C7.90454 1.05408 7.37757 5.62116 7.37757 12.6474C7.37757 19.6737 7.90454 23.8895 7.90454 23.8895" stroke="#2F2F2F" stroke-width="2.10789" stroke-linecap="round"></path>
<path d="M8.08023 4.56746C6.74403 4.58797 5.73777 4.62408 4.93452 4.74277C3.94237 4.88939 3.40943 5.14312 3.02185 5.53494C2.63622 5.92484 2.38686 6.46425 2.25061 7.47266C2.11005 8.51304 2.10789 9.88932 2.10789 11.8658V13.3767C2.10789 15.3524 2.11001 16.7279 2.25061 17.7678C2.3869 18.7758 2.63625 19.3151 3.0222 19.7052C3.41022 20.0973 3.94286 20.3508 4.9335 20.497C5.73676 20.6156 6.74316 20.651 8.08023 20.671V22.7788C6.71479 22.7592 5.56979 22.7219 4.62575 22.5826C3.3917 22.4005 2.35462 22.0278 1.52362 21.188C0.690549 20.346 0.330403 19.2961 0.161935 18.0502C-0.00218581 16.8362 1.47433e-06 15.2927 1.47433e-06 13.3767V11.8658C1.47433e-06 9.94897 -0.00211043 8.4049 0.161935 7.19065C0.330281 5.94459 0.690255 4.8948 1.52293 4.05284C2.35374 3.21285 3.39133 2.84002 4.6261 2.65753C5.56994 2.51805 6.71491 2.47962 8.08023 2.45923V4.56746Z" fill="#2F2F2F"></path>
<path d="M11.5934 2.45923C12.3505 2.45923 13.1812 2.46525 14.032 2.47501C15.8794 2.4962 17.3734 2.51085 18.5528 2.68738C19.7679 2.86927 20.7891 3.24032 21.6154 4.06965C22.4405 4.89777 22.8086 5.91528 22.9864 7.12546C23.1588 8.29883 23.1678 9.78261 23.1823 11.6157C23.1851 11.9721 23.1867 12.318 23.1867 12.6473C23.1867 12.9748 23.1851 13.3186 23.1823 13.6728C23.1679 15.5067 23.1587 16.9911 22.9864 18.1648C22.8087 19.3752 22.441 20.3931 21.6161 21.2213C20.7899 22.0507 19.768 22.4217 18.5521 22.6039C17.3717 22.7807 15.876 22.7961 14.0261 22.818C13.1115 22.8288 12.2199 22.8355 11.4177 22.8355C11.3572 22.8355 11.2962 22.8354 11.2347 22.8353C10.6555 22.8344 10.1881 22.3629 10.1881 21.7837C10.1881 21.1987 10.6644 20.7266 11.2494 20.7274C11.3059 20.7275 11.362 20.7276 11.4177 20.7276C12.209 20.7276 13.0919 20.7208 14.0014 20.7101C15.9117 20.6875 17.2363 20.6697 18.2399 20.5193C19.2078 20.3743 19.7337 20.1241 20.1227 19.7337C20.513 19.3418 20.7601 18.8172 20.9008 17.8584C21.0469 16.8629 21.0599 15.5508 21.0747 13.6563C21.0775 13.3066 21.0789 12.9683 21.0789 12.6473C21.0789 12.3245 21.0772 11.9841 21.0744 11.6322C21.0595 9.73844 21.047 8.42691 20.9008 7.43183C20.76 6.47366 20.5125 5.94954 20.122 5.55759C19.7326 5.16682 19.207 4.91694 18.2405 4.77228C17.2383 4.62227 15.9157 4.60477 14.008 4.5829C13.1624 4.5732 12.3401 4.56711 11.5934 4.56711C11.4808 4.56711 11.3663 4.56727 11.2502 4.56757C10.6649 4.56907 10.1881 4.09648 10.1881 3.51124C10.1881 2.93219 10.6552 2.46108 11.2343 2.45968C11.3558 2.45938 11.4755 2.45923 11.5934 2.45923Z" fill="#2F2F2F"></path>
<path d="M114.135 19.4947C114.135 19.0449 113.753 18.2874 112.987 17.2221C112.64 16.7408 112.427 16.5001 112.348 16.5001C112.127 16.5001 111.835 16.7329 111.472 17.1985C110.762 18.098 110.407 18.749 110.407 19.1515C110.407 19.3093 110.466 19.5144 110.584 19.7669C110.703 20.0116 110.762 20.1497 110.762 20.1812C110.762 20.4495 110.233 20.5836 109.176 20.5836L108.809 20.5718H108.442C107.29 20.5718 106.714 20.4258 106.714 20.1339C106.714 19.905 106.986 19.6367 107.531 19.329C108.075 19.0134 108.592 18.5636 109.081 17.9797C110.478 16.3068 111.176 15.3205 111.176 15.0206C111.176 14.6103 110.435 13.4937 108.951 11.6709C108.643 11.2922 108.229 10.9174 107.708 10.5465C107.195 10.1756 106.939 9.91917 106.939 9.77713C106.939 9.41416 108.083 9.23267 110.371 9.23267H110.726C111.397 9.23267 111.733 9.39443 111.733 9.71795C111.614 10.073 111.555 10.2743 111.555 10.3216C111.555 10.7635 111.8 11.3277 112.289 12.0142C112.786 12.7007 113.074 13.0439 113.153 13.0439C113.366 13.0439 113.725 12.7323 114.23 12.1089C114.735 11.4776 114.988 11.0436 114.988 10.8069C114.988 10.5702 114.928 10.3413 114.81 10.1204C114.7 9.89944 114.644 9.74163 114.644 9.64694C114.644 9.39443 115.291 9.26817 116.585 9.26817C117.887 9.26817 118.538 9.44177 118.538 9.78897C118.538 10.0178 118.266 10.2703 117.722 10.5465C117.185 10.8227 116.731 11.1738 116.361 11.5999C114.995 13.1623 114.313 14.1447 114.313 14.5472C114.313 15.0758 115.208 16.3699 117 18.4294C117.307 18.7845 117.682 19.0844 118.124 19.329C118.566 19.5657 118.787 19.8103 118.787 20.0629C118.787 20.3627 117.986 20.5126 116.384 20.5126L115.639 20.5363H114.893C114.246 20.5363 113.922 20.3785 113.922 20.0629C114.064 19.7551 114.135 19.5657 114.135 19.4947Z" fill="#2F2F2F"></path>
<path d="M103.956 5.35033C103.956 5.69753 103.806 6.02105 103.506 6.32091C103.214 6.61287 102.923 6.75885 102.631 6.75885C102.567 6.77463 102.516 6.78252 102.477 6.78252L102.216 6.80619C101.822 6.80619 101.467 6.676 101.151 6.4156C100.843 6.1552 100.689 5.81984 100.689 5.40951V5.19646C100.689 4.78614 100.851 4.44289 101.175 4.16671C101.506 3.88264 101.885 3.7406 102.311 3.7406H102.37L102.773 3.78795C103.017 3.78795 103.27 3.92209 103.53 4.19038C103.798 4.45078 103.933 4.71512 103.933 4.98341L103.956 5.08994V5.35033ZM100.192 10.6293C99.7819 10.432 99.5768 10.2466 99.5768 10.073C99.5768 9.89941 99.6596 9.76132 99.8253 9.65874C100.401 9.31154 101.313 9.13794 102.56 9.13794H102.903C103.329 9.13794 103.57 9.33521 103.625 9.72975C103.656 9.94281 103.672 11.3789 103.672 14.0382C103.672 16.6895 103.727 18.2124 103.838 18.607C103.948 18.9936 104.213 19.2935 104.631 19.5065C105.049 19.7117 105.258 19.9208 105.258 20.1338C105.258 20.4337 104.28 20.5836 102.323 20.5836L101.968 20.5954H100.524C99.9476 20.5954 99.6596 20.4534 99.6596 20.1693C99.6596 19.9326 99.8332 19.7038 100.18 19.4828C100.536 19.2619 100.78 19.0173 100.914 18.749C101.064 18.457 101.139 17.7745 101.139 16.7013L101.151 16.3226V15.9556L101.163 15.3993V15.0324L101.175 14.6655C101.175 12.7953 101.112 11.7064 100.985 11.3987C100.867 11.083 100.603 10.8266 100.192 10.6293Z" fill="#2F2F2F"></path>
<path d="M96.0022 4.02466C96.6413 4.02466 97.1069 4.18248 97.3989 4.49811C97.6987 4.80585 97.8486 5.47263 97.8486 6.49844C97.8486 7.07447 97.7184 7.36249 97.458 7.36249C97.4265 7.36249 97.174 7.17705 96.7005 6.80618C96.2271 6.42742 95.8246 6.17097 95.4932 6.03682C94.6726 5.7133 93.6547 5.55154 92.4395 5.55154C91.674 5.55154 91.1375 5.8001 90.8297 6.29722C90.522 6.79435 90.3681 7.7807 90.3681 9.25629C90.3681 10.0848 90.518 10.649 90.8179 10.9489C91.1177 11.2487 91.5636 11.3987 92.1554 11.3987C92.7551 11.3987 93.3272 11.2329 93.8717 10.9015C94.424 10.5701 94.716 10.4044 94.7475 10.4044C95.0395 10.4044 95.2447 10.5386 95.363 10.8068C95.4893 11.0751 95.5524 11.5091 95.5524 12.1088C95.5524 13.4345 95.221 14.0973 94.5582 14.0973C94.4477 14.0973 94.1597 13.979 93.6941 13.7422C93.2364 13.4976 92.9011 13.3753 92.688 13.3753C91.9305 13.3753 91.3584 13.5252 90.9718 13.8251C90.593 14.1171 90.4036 14.7128 90.4036 15.6124C90.4036 16.5119 90.4825 17.2931 90.6404 17.9559C90.7982 18.6188 90.9244 19.037 91.0191 19.2106C91.1138 19.3842 91.2243 19.5657 91.3505 19.7551C91.4847 19.9444 91.5517 20.0786 91.5517 20.1575C91.5517 20.4495 91.0191 20.5954 89.9538 20.5954H89.5396L89.1253 20.5836C86.9711 20.5836 85.894 20.3666 85.894 19.9326C85.894 19.7117 86.1031 19.467 86.5213 19.1988C86.9474 18.9305 87.2078 18.6464 87.3025 18.3465C87.3972 18.0467 87.4446 17.3207 87.4446 16.1687V13.8014L87.4801 12.5349L87.4919 11.2566V9.96647C87.4919 8.13579 87.4209 6.97584 87.2788 6.4866C87.1368 5.98948 86.9435 5.65412 86.6989 5.48052C86.0992 5.04652 85.7993 4.79007 85.7993 4.71116C85.7993 4.44287 85.9611 4.26927 86.2846 4.19037C86.4898 4.14302 87.1565 4.11935 88.2849 4.11935L91.2558 4.06017L92.546 4.02466H96.0022Z" fill="#2F2F2F"></path>
<path d="M78.0229 20.1338C78.0229 19.9681 78.2005 19.7551 78.5556 19.4947C78.9185 19.2343 79.1632 18.8279 79.2894 18.2755C79.4157 17.7153 79.4788 15.6005 79.4788 11.9313C79.4788 8.26204 79.4354 6.1828 79.3486 5.69356C79.2697 5.20433 79.0685 4.85319 78.7449 4.64014C78.2241 4.30083 77.9637 4.09172 77.9637 4.01281V3.87078C77.9637 3.73664 78.0782 3.61827 78.307 3.51569C79.0172 3.20795 79.9641 3.05408 81.1477 3.05408H81.3844C81.7869 3.05408 82.0196 3.32631 82.0828 3.87078C82.0907 3.9418 82.0946 4.53756 82.0946 5.65806V8.20285L82.0828 8.68814V9.43383L82.0709 9.91911C82.0709 9.91911 82.0709 11.1698 82.0709 13.6712C82.0709 16.0069 82.1064 17.4549 82.1775 18.0151C82.2564 18.5675 82.4339 18.9699 82.7101 19.2224C82.7417 19.2461 82.9074 19.3487 83.2072 19.5302C83.5071 19.7117 83.657 19.8971 83.657 20.0865C83.657 20.3626 83.1678 20.5007 82.1893 20.5007L81.704 20.5244H81.2187L79.2776 20.5599H79.029C78.3583 20.5599 78.0229 20.4179 78.0229 20.1338Z" fill="#2F2F2F"></path>
<path d="M70.566 20.1338C70.566 19.9681 70.7436 19.7551 71.0986 19.4947C71.4616 19.2343 71.7062 18.8279 71.8325 18.2755C71.9588 17.7153 72.0219 15.6005 72.0219 11.9313C72.0219 8.26204 71.9785 6.1828 71.8917 5.69356C71.8128 5.20433 71.6116 4.85319 71.288 4.64014C70.7672 4.30083 70.5068 4.09172 70.5068 4.01281V3.87078C70.5068 3.73664 70.6213 3.61827 70.8501 3.51569C71.5603 3.20795 72.5072 3.05408 73.6908 3.05408H73.9275C74.33 3.05408 74.5627 3.32631 74.6259 3.87078C74.6337 3.9418 74.6377 4.53756 74.6377 5.65806V8.20285L74.6259 8.68814V9.43383L74.614 9.91911C74.614 9.91911 74.614 11.1698 74.614 13.6712C74.614 16.0069 74.6495 17.4549 74.7205 18.0151C74.7995 18.5675 74.977 18.9699 75.2532 19.2224C75.2847 19.2461 75.4504 19.3487 75.7503 19.5302C76.0502 19.7117 76.2001 19.8971 76.2001 20.0865C76.2001 20.3626 75.7108 20.5007 74.7324 20.5007L74.2471 20.5244H73.7618L71.8207 20.5599H71.5721C70.9014 20.5599 70.566 20.4179 70.566 20.1338Z" fill="#2F2F2F"></path>
<path d="M65.9853 12.8546V12.4877C65.9853 11.9037 65.7762 11.379 65.358 10.9134C64.9398 10.44 64.4269 10.2033 63.8193 10.2033H63.5944C63.4839 10.219 63.409 10.2269 63.3695 10.2269C62.8172 10.2269 62.2924 10.5426 61.7953 11.1738C61.3061 11.8051 61.0615 12.4798 61.0615 13.1978V13.3517C61.0615 13.6042 61.2114 13.7305 61.5112 13.7305C61.6296 13.7541 61.6927 13.766 61.7006 13.766L61.9729 13.7778H62.0439L62.1267 13.766L64.4111 13.6358L64.8372 13.5884C65.6026 13.5884 65.9853 13.3438 65.9853 12.8546ZM61.0615 15.9912C61.0615 16.8908 61.4008 17.6443 62.0794 18.2519C62.758 18.8595 63.6181 19.1633 64.6597 19.1633C65.0779 19.1633 65.4567 19.1041 65.796 18.9858C66.1432 18.8595 66.518 18.7096 66.9204 18.536C67.3307 18.3624 67.5872 18.2756 67.6898 18.2756C68.0054 18.2756 68.1632 18.4453 68.1632 18.7846C68.1632 19.2422 67.5793 19.7315 66.4115 20.2523C65.6539 20.5916 64.8412 20.7612 63.9732 20.7612H63.7128C62.2293 20.7612 60.9983 20.3114 60.0199 19.4119C59.4912 18.9227 59.0809 18.2993 58.7889 17.5418C58.4969 16.7763 58.351 15.9557 58.351 15.0798L58.3628 14.8076V14.5353C58.3628 13.7778 58.5364 13.0321 58.8836 12.2983C59.2387 11.5644 59.6608 10.9608 60.1501 10.4873C61.1838 9.49309 62.4108 8.99202 63.8311 8.98413C65.9775 8.98413 67.4057 9.82056 68.1159 11.4934C68.3368 12.0221 68.4473 12.5074 68.4473 12.9493V13.186C68.4473 13.7305 68.2224 14.0974 67.7726 14.2868C67.3228 14.4683 66.2615 14.6182 64.5887 14.7366C62.9158 14.8549 62.0084 14.9338 61.8663 14.9733C61.3297 15.1074 61.0615 15.4467 61.0615 15.9912Z" fill="#2F2F2F"></path>
<path d="M53.5455 15.2692V14.5708C53.5455 13.3004 53.2851 12.2864 52.7643 11.5289C52.2435 10.7714 51.5886 10.3926 50.7995 10.3926H50.6811C50.2471 10.3926 49.825 10.5149 49.4146 10.7595C49.0043 10.9963 48.6887 11.3001 48.4677 11.6709C48.2547 12.0418 48.1482 13.1347 48.1482 14.9496V15.9557L48.16 16.0859V16.583L48.1718 16.7014V16.9499C48.1876 17.1235 48.1955 17.2498 48.1955 17.3287C48.1955 17.9994 48.4086 18.5241 48.8347 18.9029C49.2687 19.2738 49.8486 19.4592 50.5746 19.4592H50.693C51.561 19.4592 52.2514 19.0607 52.7643 18.2637C53.2851 17.4668 53.5455 16.4686 53.5455 15.2692ZM48.811 20.3588C48.4007 20.3588 48.1955 20.8874 48.1955 21.9448C48.1955 23.0101 48.2705 23.6848 48.4204 23.9688C48.5782 24.2608 48.8268 24.5251 49.1661 24.7619C49.5133 24.9986 49.6869 25.1998 49.6869 25.3655C49.6869 25.7206 49.174 25.8981 48.1482 25.8981H46.9645C45.1654 25.8981 44.2659 25.7166 44.2659 25.3537C44.2659 25.2432 44.4947 24.967 44.9524 24.5251C45.197 24.2884 45.3903 23.8071 45.5324 23.0811C45.6744 22.363 45.7454 20.9979 45.7454 18.9858V14.0737L45.7217 12.8072C45.7217 12.0339 45.6191 11.4697 45.414 11.1146C45.3351 10.9805 45.1299 10.799 44.7985 10.5702C44.4671 10.3334 44.3014 10.1322 44.3014 9.96652C44.3014 9.80081 44.3961 9.67061 44.5854 9.57592C45.2009 9.27607 46.0137 9.12614 47.0237 9.12614C47.2841 9.12614 47.5485 9.28396 47.8167 9.59959C48.0929 9.91523 48.2468 10.073 48.2784 10.073C48.4046 10.073 48.6571 9.96652 49.0359 9.75347C49.4225 9.53252 49.6277 9.41416 49.6514 9.39838C50.33 9.08274 50.9179 8.92493 51.415 8.92493H52.0305C52.4723 8.92493 52.9734 9.04723 53.5337 9.29185C54.6068 9.75741 55.3762 10.6293 55.8417 11.9077C56.1179 12.6573 56.256 13.3872 56.256 14.0974V14.7602C56.256 15.4941 56.1061 16.2476 55.8062 17.0209C55.2144 18.5518 54.2123 19.5934 52.7998 20.1457C52.2001 20.3824 51.5018 20.5008 50.7048 20.5008L48.811 20.3588Z" fill="#2F2F2F"></path>
<path d="M38.691 5.87119C38.0439 5.4293 37.314 5.20836 36.5013 5.20836C35.6964 5.20836 35.0375 5.42141 34.5246 5.84752C34.0117 6.26573 33.7552 6.85754 33.7552 7.62296C33.7552 8.38048 34.1379 9.0512 34.9034 9.63512C35.361 9.99021 36.2961 10.4716 37.7086 11.0791C39.121 11.6867 40.1034 12.247 40.6558 12.7599C41.7132 13.7384 42.2418 14.7563 42.2418 15.8137V16.2398C42.2418 17.5496 41.721 18.6149 40.6795 19.4356C40.1981 19.8143 39.5984 20.1181 38.8803 20.3469C38.1623 20.5679 37.4442 20.6784 36.7261 20.6784H36.2882C34.6627 20.6784 33.2384 20.4337 32.0153 19.9445C31.4629 19.7236 31.1868 19.1199 31.1868 18.1336V17.7193C31.1868 16.5514 31.388 15.9675 31.7904 15.9675C32.0666 15.9675 32.4414 16.3423 32.9149 17.092C33.3883 17.8416 33.9328 18.4058 34.5483 18.7846C35.1716 19.1633 35.9213 19.3527 36.7972 19.3527C37.673 19.3527 38.3793 19.1239 38.9159 18.6662C39.4524 18.2006 39.7207 17.6285 39.7207 16.9499C39.7207 16.0188 39.2867 15.2337 38.4187 14.5945C38.0479 14.3262 37.1167 13.8488 35.6254 13.1623C34.134 12.4679 33.1003 11.8209 32.5243 11.2212C31.7352 10.4005 31.3406 9.3984 31.3406 8.21477C31.3406 7.03114 31.7628 6.04873 32.6071 5.26754C33.0727 4.83354 33.6527 4.49818 34.3471 4.26146C35.0414 4.01684 35.7516 3.89453 36.4776 3.89453H36.9155C37.2154 3.89453 37.6415 3.94582 38.1938 4.0484L38.6081 4.13126C39.0973 4.22595 39.3617 4.27724 39.4011 4.28513L39.7681 4.3088L40.1232 4.32064C40.4546 4.34431 40.6873 4.38376 40.8215 4.439C41.2871 4.62838 41.5198 5.28727 41.5198 6.41566C41.5198 7.54405 41.2989 8.10824 40.857 8.10824C40.6361 8.10824 40.3046 7.79261 39.8628 7.16134C39.4209 6.53007 39.0303 6.10002 38.691 5.87119Z" fill="#2F2F2F"></path>
</svg>