<svg width="24" height="24" viewBox="0 0 24 24" fill="none" xmlns="http://www.w3.org/2000/svg">
<path d="M4.24609 6.73848L5.07686 5.63078L8.95379 4.93848L8.67687 19.2L5.76917 19.0616L4.24609 17.5385V6.73848Z" fill="#D9D9D9" fill-opacity="0.4" stroke="#2F2F2F" stroke-width="0.276923"></path>
<path d="M9.34473 2.00674C9.89326 2.07003 10.2867 2.56565 10.2236 3.11416V3.11611C10.2235 3.11739 10.2229 3.11947 10.2227 3.12197C10.222 3.12806 10.2211 3.1385 10.2197 3.15127C10.2169 3.17707 10.2124 3.2164 10.207 3.26845C10.1961 3.37382 10.1802 3.53248 10.1611 3.74013C10.1229 4.15597 10.0718 4.77086 10.0205 5.55752C9.91788 7.13132 9.81543 9.39428 9.81543 12.1386C9.81544 14.8828 9.91806 17.0754 10.0205 18.578C10.0717 19.3292 10.1231 19.908 10.1611 20.2968C10.1801 20.491 10.1952 20.638 10.2061 20.7353C10.2115 20.7838 10.216 20.8202 10.2188 20.8437C10.2201 20.8551 10.221 20.8637 10.2217 20.869C10.222 20.8716 10.2225 20.8738 10.2227 20.8749V20.8759C10.2911 21.4238 9.90246 21.9236 9.35449 21.9921C8.84079 22.0561 8.36913 21.7185 8.25586 21.2245L8.23828 21.1239V21.1229C8.2382 21.1223 8.23748 21.121 8.23731 21.12C8.23705 21.1179 8.23677 21.1149 8.23633 21.1112C8.23542 21.1037 8.23406 21.0928 8.23242 21.079C8.22913 21.0512 8.22467 21.0099 8.21875 20.9569C8.2069 20.8508 8.18982 20.6945 8.16992 20.4911C8.15842 20.3735 8.14705 20.2397 8.13379 20.0907C7.58071 20.0683 7.08593 20.0345 6.64649 19.9696C5.67375 19.8261 4.85621 19.532 4.20117 18.87C3.54465 18.2065 3.26074 17.3792 3.12793 16.3974C2.99856 15.4405 3 14.223 3 12.7128V11.5224C3 10.0114 2.99862 8.79395 3.12793 7.83681C3.26064 6.85469 3.54388 6.02682 4.2002 5.36318C4.85506 4.70111 5.67322 4.40742 6.64649 4.26357C7.08226 4.19917 7.57251 4.16342 8.12012 4.14053C8.1385 3.91792 8.15472 3.72305 8.16992 3.55752C8.18973 3.34179 8.20602 3.1755 8.21777 3.0624C8.22364 3.00598 8.2282 2.9621 8.23145 2.93252C8.23305 2.91787 8.23446 2.90623 8.23535 2.89834C8.23575 2.89476 8.23609 2.89168 8.23633 2.88955L8.23731 2.88662V2.88564C8.30059 2.3372 8.79632 1.94379 9.34473 2.00674ZM14.0605 4.12002C15.5167 4.13672 16.6945 4.14789 17.624 4.28701C18.5818 4.43038 19.3867 4.72322 20.0381 5.37685C20.6885 6.02962 20.979 6.83211 21.1191 7.78603C21.255 8.71086 21.2621 9.88041 21.2734 11.3251C21.2757 11.606 21.2773 11.879 21.2773 12.1386C21.2773 12.3965 21.2756 12.6672 21.2734 12.9462C21.2621 14.3917 21.2549 15.5621 21.1191 16.4872C20.9791 17.4412 20.6892 18.2436 20.0391 18.8964C19.3879 19.5501 18.5823 19.8426 17.624 19.9862C16.6936 20.1256 15.5138 20.1379 14.0557 20.1552C13.3349 20.1637 12.6322 20.1688 12 20.1688C11.9523 20.1688 11.9039 20.1689 11.8555 20.1688C11.399 20.1679 11.0313 19.7962 11.0313 19.3397C11.0313 18.8788 11.4062 18.5071 11.8672 18.5077C11.9117 18.5078 11.9561 18.5077 12 18.5077C12.6237 18.5077 13.3202 18.5025 14.0371 18.494C15.5426 18.4763 16.587 18.4622 17.3779 18.3437C18.1407 18.2293 18.5548 18.0313 18.8613 17.7235C19.1689 17.4147 19.3637 17.0016 19.4746 16.246C19.5898 15.4613 19.6006 14.4268 19.6123 12.9335C19.6145 12.658 19.6152 12.3915 19.6152 12.1386C19.6152 11.8841 19.6145 11.6152 19.6123 11.3378C19.6005 9.84523 19.5898 8.81157 19.4746 8.02724C19.3636 7.27204 19.1691 6.85865 18.8613 6.54971C18.5544 6.24168 18.1397 6.0446 17.3779 5.93056C16.588 5.81235 15.5456 5.79839 14.042 5.78115C13.3756 5.77351 12.7272 5.76943 12.1387 5.76943C12.05 5.76943 11.9596 5.7692 11.8682 5.76943C11.4068 5.77061 11.0313 5.39774 11.0313 4.93642C11.0314 4.4801 11.3991 4.10843 11.8555 4.10732C11.9512 4.10709 12.0458 4.10732 12.1387 4.10732C12.7353 4.10732 13.3901 4.11233 14.0605 4.12002ZM8.00195 5.80752C7.58025 5.82838 7.21395 5.85921 6.88965 5.90713C6.10759 6.0227 5.68734 6.22327 5.38184 6.53213C5.07798 6.83945 4.88179 7.26477 4.77441 8.05947C4.66364 8.87953 4.66113 9.96451 4.66113 11.5224V12.7128C4.66113 14.2701 4.66359 15.355 4.77441 16.1747C4.8818 16.9686 5.07791 17.3937 5.38184 17.7011C5.68769 18.0102 6.10786 18.2108 6.88867 18.3261C7.21465 18.3742 7.58324 18.4041 8.00781 18.4247C7.9094 16.8963 7.81544 14.7627 7.81543 12.1386C7.81543 9.55794 7.90563 7.39243 8.00195 5.80752Z" fill="#2F2F2F"></path>
</svg>