<svg width="24" height="24" viewBox="0 0 24 24" fill="none" xmlns="http://www.w3.org/2000/svg">
<path d="M22 12C22 17.5228 17.5228 22 12 22C6.47715 22 2 17.5228 2 12C2 6.47715 6.47715 2 12 2C17.5228 2 22 6.47715 22 12Z" fill="#D9D9D9" fill-opacity="0.4"/>
<path d="M11.9995 2C17.5224 2 21.9995 6.47715 21.9995 12C21.9995 17.5228 17.5224 22 11.9995 22C10.5544 21.9999 9.1823 21.6903 7.94189 21.1387C7.81065 21.1359 7.67127 21.1374 7.52392 21.1436C6.88221 21.1706 6.16849 21.2757 5.44873 21.3818C4.74545 21.4855 4.02399 21.5919 3.42236 21.6025C3.12029 21.6079 2.82181 21.5899 2.55517 21.5244C2.28923 21.459 2.01415 21.3361 1.81201 21.1006C1.42361 20.6474 1.4731 20.0149 1.57666 19.5068C1.6872 18.9649 1.91281 18.3321 2.12353 17.7217C2.34062 17.0928 2.54955 16.4661 2.66259 15.876C2.67603 15.8058 2.68646 15.7364 2.69677 15.6689C2.24833 14.5328 1.99951 13.2955 1.99951 12C1.99951 6.47731 6.47688 2.00026 11.9995 2ZM11.9995 4C7.58145 4.00026 3.99951 7.58188 3.99951 12C3.99951 16.4181 7.58145 19.9997 11.9995 20C16.4178 20 19.9995 16.4183 19.9995 12C19.9995 7.58172 16.4178 4 11.9995 4Z" fill="#2F2F2F"/>
</svg>
