<svg width="499" height="21" viewBox="0 0 499 21" fill="none" xmlns="http://www.w3.org/2000/svg">
<path d="M42.5088 0.372149C46.4788 -0.261969 54.0843 0.0663015 58.2573 0.2538C58.3344 0.256935 58.4116 0.260072 58.4888 0.263211C59.4872 0.30747 60.4312 0.325556 61.5364 0.346315C64.1698 0.396364 67.7345 0.462491 75.112 0.970579C77.2477 0.98095 79.4335 1.00012 81.5897 1.02842C104.865 1.33369 128.12 2.3133 151.361 3.47192C151.657 3.47493 151.957 3.47796 152.261 3.48104C158.135 3.54033 165.331 3.61878 169.869 3.96383C175.671 4.40305 179.58 4.77911 182.784 5.09981C201.261 6.06647 219.707 7.00237 238.132 7.64656C243.967 7.84986 249.725 8.02206 255.492 8.15807C260.863 8.2847 266.172 8.38635 271.473 8.46552C274.604 8.39223 277.565 8.2868 280.299 8.18774C284.143 8.0486 287.523 7.9218 290.388 7.91549C297.235 7.89972 304.889 8.28627 310.658 8.56501C311.595 8.61055 312.477 8.65336 313.292 8.69106C317.795 8.67544 322.419 8.64939 326.961 8.61266C327.264 8.67146 327.569 8.7326 327.879 8.79519C331.713 9.57523 336.551 9.62887 344.047 9.68437C347.28 9.70775 351.12 9.732 355.589 9.80923C358.467 9.85871 359.93 10.153 361.128 10.3934C361.48 10.4641 361.81 10.5301 362.143 10.5836C363.278 10.7668 364.536 10.576 365.98 10.3492C367.861 10.0548 370.11 9.69978 373.055 10.0195C382.448 11.0348 386.677 10.2947 389.757 9.74222C390.661 9.57942 391.505 9.43152 392.369 9.34507C395.17 9.0655 399.127 9.26552 402.088 9.56168C404.384 9.79919 409.244 9.44373 412.787 9.02084C414.142 8.86121 415.937 8.81652 418.102 8.7576C420.367 8.69602 422.97 8.62035 425.719 8.38843C432.582 7.80286 436.45 7.46042 439.363 7.19435C440.204 7.11748 440.985 7.04593 441.763 6.97211C444.254 6.7376 447.406 6.48394 450.507 6.21433C454.178 5.89531 458.071 5.53474 460.928 5.18039C468.36 4.86371 475.864 4.48366 483.395 3.95767C487.167 3.69935 490.984 3.91106 493.793 4.62221C496.608 5.33392 498.262 6.48153 498.44 7.87088C498.613 9.25886 497.291 10.7923 494.676 12.1431C492.07 13.4924 488.306 14.5392 484.485 15.0263C476.593 16.027 468.709 16.8706 460.949 17.5531C451.299 18.3962 441.836 18.9994 432.198 19.3506C425.557 19.5922 418.722 19.7504 412.124 19.8322C411.435 19.8409 410.746 19.8485 410.055 19.8557C404.357 20.3162 398.862 20.7067 394.865 20.8635C391.562 20.993 389.202 20.8285 387.178 20.6864C385.782 20.5885 384.543 20.5006 383.286 20.5229C382.61 20.5348 381.687 20.5609 380.569 20.5913C375.957 20.7172 368.378 20.9045 361.296 20.542C358.21 20.3822 354.599 20.0697 351.122 19.7647C346.129 19.3289 341.627 18.9103 339.275 19.0007C335.161 19.1602 330.503 18.9325 326.383 18.7246C322.453 18.5265 318.94 18.3465 317.002 18.5492C314.673 18.7913 312.687 18.6454 309.717 18.4264C307.663 18.2745 305.102 18.0873 301.668 17.9664C297.735 17.8273 294.932 17.577 292.545 17.3635C289.185 17.0628 286.625 16.8347 282.893 17.0792C278.725 17.3504 274.336 17.4828 270.867 17.2916C269.307 17.205 267.531 17.1774 265.67 17.1481C263.208 17.1093 260.609 17.0672 258.23 16.8826C256.275 16.7307 254.629 16.42 253.229 16.1463C252.788 16.0608 252.365 15.9791 251.954 15.9063C250.407 15.873 248.856 15.8411 247.302 15.8118C247.049 15.8495 246.783 15.8915 246.506 15.9348C245.113 16.1522 243.398 16.4186 241.273 16.5204C237.891 16.681 234.996 16.4582 231.912 16.2213C229.512 16.0368 227.008 15.8441 224.121 15.82C222.15 15.8034 219.906 15.8592 217.711 15.9151C214.44 15.9978 211.192 16.0786 208.935 15.9208C208.09 15.8616 207.365 15.6731 206.648 15.4857C206.645 15.4846 206.642 15.4835 206.639 15.4823C206.59 15.4696 206.541 15.4572 206.492 15.4445C200.963 15.4387 195.55 15.4498 190.024 15.4676C189.546 15.5 189.063 15.5316 188.583 15.5626C186.229 15.7142 183.985 15.8628 182.509 16.1148C180.911 16.388 176.903 16.4739 172.652 16.566C169.864 16.6261 166.991 16.6892 164.664 16.809C163.3 16.8789 162.01 16.6739 160.681 16.4628C159.441 16.2658 158.166 16.0637 156.765 16.0757C156.063 16.0817 155.304 16.1378 154.493 16.1979C153.779 16.2508 153.023 16.307 152.232 16.3343C151.495 16.3596 149.865 16.2284 147.796 16.0623C146.514 15.9596 145.055 15.8437 143.522 15.7415C139.465 15.7661 135.373 15.7878 131.305 15.8053C130.459 15.9428 129.722 16.1285 129.137 16.3741C128.718 16.5502 128.359 16.7636 127.99 16.9817C127.489 17.2786 126.97 17.5853 126.258 17.8243C125.701 18.011 125.047 18.0772 124.61 17.9869C124.407 17.9448 124.252 17.8699 124.11 17.8021C123.949 17.7244 123.805 17.6553 123.627 17.6538C123.499 17.6529 123.364 17.7032 123.199 17.7641C122.935 17.8613 122.592 17.9867 122.073 17.9817C120.142 17.963 117.944 17.8805 115.787 17.8001C113.374 17.7105 111.074 17.6255 109.212 17.6331C107.133 17.6416 104.169 17.3958 101.191 17.1525C99.1147 16.9827 97.0285 16.8145 95.2393 16.7316C93.5016 16.6506 91.687 16.7323 89.9273 16.8128C87.8151 16.9094 85.7799 17.0039 84.0518 16.8085C83.7024 16.7688 83.2706 16.5503 82.7286 16.277C82.3444 16.0833 81.9021 15.8619 81.3977 15.6565C79.1958 15.6276 76.9668 15.5908 74.7861 15.5483C74.7085 15.5762 74.6285 15.6046 74.5484 15.6336C74.5471 15.6343 74.5458 15.635 74.5446 15.6357C72.7353 16.2907 70.2597 17.187 66.7912 16.5974C65.9094 16.4476 65.3556 16.1825 64.8565 15.944C64.3663 15.7097 63.9281 15.5001 63.2836 15.4504C62.5516 15.3942 61.685 15.5262 60.7396 15.6701C59.4147 15.872 57.9196 16.0981 56.4536 15.8614C56.3531 15.8453 56.2449 15.8275 56.1323 15.8098C55.0645 15.6413 53.4826 15.3924 51.9079 14.9063C47.2281 14.7418 42.5192 14.5615 37.8216 14.3742C30.0467 14.0621 22.1557 13.7296 14.3735 13.417C10.5764 13.2631 6.92454 12.621 4.22556 11.5933C1.52655 10.5641 0.00319977 9.24051 4.60737e-05 7.86701C-0.00325038 6.49383 1.51433 5.16267 4.21472 4.12557C6.91503 3.08977 10.5753 2.44289 14.3818 2.2948C20.5615 2.05595 26.8456 1.82925 33.0449 1.63292C33.3705 1.60588 33.6974 1.57981 34.0227 1.5555C36.4454 1.37458 38.677 1.00026 40.9475 0.627011C41.467 0.541269 41.9873 0.455414 42.5088 0.372149Z" fill="#24D17F"></path>
</svg>