<svg width="358" height="23" viewBox="0 0 358 23" fill="none" xmlns="http://www.w3.org/2000/svg">
<path d="M30.5397 6.48044C33.3126 5.78545 38.7055 5.96897 41.8009 6.05862C41.8566 6.06002 41.9123 6.06143 41.9679 6.06283C42.6881 6.08458 43.3666 6.08094 44.1581 6.07562C46.0488 6.0621 48.5675 6.04712 53.7813 6.34614C55.3686 6.29364 56.9419 6.24689 58.501 6.20731C75.0535 5.78796 91.7746 5.72624 108.468 5.57129C108.674 5.5579 108.883 5.54422 109.095 5.53039C113.222 5.26218 118.549 4.89934 121.702 4.96675C125.822 5.04745 128.764 5.16108 131.04 5.27305C144.31 5.02699 157.553 4.60582 170.816 3.90184C174.935 3.68463 179.151 3.43425 183.274 3.16516C187.054 2.91843 190.974 2.64925 194.753 2.3851C197.006 2.10749 199.123 1.8163 201.074 1.55191C203.792 1.18145 206.319 0.857127 208.34 0.697297C213.233 0.308046 218.847 0.340922 223.019 0.410483C223.7 0.421393 224.343 0.432884 224.937 0.442634C228.235 0.272088 231.538 0.121799 234.852 9.56707e-06C235.073 0.0531283 235.297 0.108707 235.524 0.165835C238.341 0.881559 241.827 0.860651 247.27 0.937527C249.624 0.972169 252.457 1.03155 255.645 1.19416C257.724 1.30049 258.793 1.63604 259.663 1.90899C259.92 1.98945 260.16 2.06489 260.405 2.12822C261.243 2.34526 262.145 2.19291 263.182 2.01508C264.536 1.78514 266.172 1.51341 268.315 1.96589C275.092 3.41497 278.116 2.98576 280.475 2.64757C281.143 2.54821 281.751 2.45995 282.37 2.43603C284.375 2.3572 287.223 2.87381 289.395 3.43656C291.064 3.87482 294.446 3.95813 297.118 3.91668C298.108 3.89788 299.528 4.05755 301.02 4.23203C302.603 4.41705 304.453 4.64006 306.482 4.7513C311.715 5.04966 314.218 5.22526 316.434 5.39013C317.054 5.43632 317.635 5.48124 318.217 5.52543C320.066 5.66616 322.351 5.89854 324.566 6.12964C327.252 6.41084 330.04 6.72027 332.203 6.8981C337.486 7.91351 343.004 9.05619 348.267 10.1934C350.964 10.7772 353.518 11.8712 355.317 13.2484C357.117 14.6263 358.006 16.1634 357.753 17.5399C357.502 18.9172 356.127 20.0373 353.971 20.7002C351.814 21.362 349.064 21.5096 346.354 21.1499C340.86 20.4161 335.199 19.6942 329.695 19.0022C322.862 18.1385 316.083 17.2915 309.451 16.4075C304.606 15.7623 300.115 15.1742 295.263 14.5706C294.774 14.5097 294.286 14.4489 293.8 14.389C289.835 14.3007 285.811 14.2229 283.016 14.0836C280.71 13.968 279.114 13.6511 277.64 13.3745C276.646 13.1861 275.771 13.0225 274.883 12.9712C274.405 12.9436 273.754 12.9168 272.973 12.8869C269.848 12.7653 264.303 12.5975 259.376 12.0539C257.157 11.8086 254.639 11.4231 252.197 11.0744C248.673 10.5733 245.446 10.1544 243.783 10.2527C240.861 10.4235 237.562 10.2488 234.608 10.1209C231.797 9.99781 229.34 9.91471 227.948 10.1755C226.286 10.4877 224.864 10.4067 222.74 10.2982C221.265 10.2236 219.456 10.1365 217.01 10.1693C214.187 10.2078 212.133 10.1025 210.448 10.0125C208.052 9.88811 206.238 9.80103 203.538 10.2666C200.595 10.7812 197.489 11.1883 194.985 11.2244C193.863 11.2396 192.605 11.3286 191.272 11.4244C189.512 11.5509 187.641 11.6877 185.905 11.6705C184.52 11.6534 183.359 11.4571 182.322 11.2842C181.999 11.2303 181.689 11.179 181.388 11.1357C180.273 11.2128 179.15 11.2925 178.02 11.376C177.84 11.4319 177.65 11.4931 177.452 11.5565C176.431 11.8762 175.296 12.2607 173.794 12.5156C171.433 12.918 169.299 12.9104 167.025 12.9025C165.326 12.8916 163.54 12.8809 161.475 13.0667C160.07 13.1933 158.439 13.4137 156.842 13.6302C154.55 13.9463 152.241 14.2591 150.604 14.263C149.991 14.2644 149.452 14.1283 148.918 13.9927C148.916 13.9918 148.913 13.9909 148.911 13.99C148.875 13.9808 148.838 13.9719 148.802 13.9627C144.768 14.3533 141.034 14.7316 136.98 15.1287C136.634 15.1936 136.283 15.2582 135.935 15.3218C134.271 15.6305 132.717 15.9247 131.674 16.2732C130.555 16.6505 127.686 16.9985 124.57 17.3623C122.558 17.5991 120.594 17.8345 118.913 18.0964C117.938 18.249 116.993 18.1224 116.015 17.9915C115.101 17.8693 114.159 17.7437 113.133 17.8384C112.619 17.8858 112.064 17.9865 111.47 18.094C110.968 18.1875 110.45 18.2858 109.897 18.3574C109.384 18.4238 108.231 18.3841 106.734 18.3331C105.809 18.3016 104.751 18.266 103.634 18.2473C100.695 18.4922 97.6628 18.7302 94.8403 18.946C94.2446 19.1252 93.7279 19.3468 93.3219 19.6206C93.0307 19.8171 92.7847 20.0476 92.5315 20.2833C92.1869 20.6041 91.8296 20.9355 91.3278 21.2084C90.9355 21.4217 90.4651 21.5191 90.1433 21.4498C89.9933 21.4175 89.8765 21.3501 89.7703 21.2891C89.6487 21.2192 89.5401 21.1571 89.4107 21.1641C89.3174 21.1692 89.2222 21.2258 89.105 21.2944C88.9179 21.4039 88.6743 21.5454 88.2949 21.5648C86.8966 21.6364 85.2174 21.6575 83.6962 21.6714C82.016 21.6866 80.354 21.7002 79.0222 21.7854C77.5312 21.8809 75.3793 21.7568 73.19 21.6305C71.6766 21.5421 70.0765 21.4552 68.8259 21.4367C67.5974 21.4187 66.3136 21.5644 65.0606 21.7055C63.5569 21.8749 62.0957 22.0372 60.8384 21.8981C60.5842 21.8698 60.2637 21.6654 59.8609 21.4097C59.5753 21.2285 59.2464 21.0212 58.8723 20.832C57.2667 20.8727 55.6458 20.9035 54.0099 20.9254C53.953 20.9556 53.8942 20.9863 53.8353 21.0176C53.8344 21.0184 53.8335 21.0191 53.8326 21.0198C52.5573 21.7261 50.8578 22.6908 48.36 22.1907C47.7259 22.0636 47.3218 21.8125 46.9575 21.5865C46.5996 21.3646 46.2794 21.1659 45.8147 21.132C45.2868 21.0937 44.666 21.2465 43.9861 21.4125C43.0317 21.6456 41.9596 21.9055 40.8688 21.7014C40.7943 21.6874 40.7142 21.6721 40.6307 21.6568C39.8398 21.5118 38.6642 21.2969 37.4822 20.8429C34.121 20.7717 30.8409 20.671 27.4336 20.5519C21.7151 20.3538 16.0762 20.098 10.5039 19.8252C7.76737 19.6909 5.09955 19.0581 3.1159 18.0332C1.13198 17.0068 0.00241598 15.6812 -1.49615e-05 14.3079C-0.00385171 12.9346 1.11872 11.6054 3.08997 10.5655C5.06146 9.52696 7.7124 8.87089 10.4361 8.70315C14.8961 8.43235 19.1416 8.15282 23.7661 7.8771C24.0026 7.84596 24.2398 7.81571 24.4757 7.78717C26.2303 7.57477 27.8405 7.16823 29.4384 6.75993C29.8054 6.66614 30.1724 6.57208 30.5397 6.48044Z" fill="#24D17F"></path>
</svg>